<mxfile host="app.diagrams.net" modified="2023-03-10T16:14:48.951Z" agent="5.0 (Windows NT 10.0; Win64; x64) AppleWebKit/537.36 (KHTML, like Gecko) Chrome/111.0.0.0 Safari/537.36" etag="vfbx3cQb4WzSYBqrV1e7" version="21.0.6" type="github" pages="2">
  <diagram name="Login - parte 1" id="-jDS0rbgTgKZwXyBZVFM">
    <mxGraphModel dx="1120" dy="486" grid="1" gridSize="10" guides="1" tooltips="1" connect="1" arrows="1" fold="1" page="1" pageScale="1" pageWidth="827" pageHeight="1169" math="0" shadow="0">
      <root>
        <mxCell id="0" />
        <mxCell id="1" parent="0" />
        <mxCell id="TKwoXikz-x9QbJygY-A--1" value="Inicio" style="ellipse;whiteSpace=wrap;html=1;aspect=fixed;" vertex="1" parent="1">
          <mxGeometry x="379" y="30" width="70" height="70" as="geometry" />
        </mxCell>
        <mxCell id="TKwoXikz-x9QbJygY-A--2" value="Ingreso de Credenciales" style="rounded=0;whiteSpace=wrap;html=1;" vertex="1" parent="1">
          <mxGeometry x="354" y="180" width="120" height="60" as="geometry" />
        </mxCell>
        <mxCell id="TKwoXikz-x9QbJygY-A--3" value="¿Credenciales correctas?" style="rhombus;whiteSpace=wrap;html=1;" vertex="1" parent="1">
          <mxGeometry x="349" y="330" width="130" height="80" as="geometry" />
        </mxCell>
        <mxCell id="TKwoXikz-x9QbJygY-A--4" value="Generar código de 2fa" style="rounded=0;whiteSpace=wrap;html=1;" vertex="1" parent="1">
          <mxGeometry x="90" y="340" width="120" height="60" as="geometry" />
        </mxCell>
        <mxCell id="TKwoXikz-x9QbJygY-A--6" value="Retornar mensaje de error" style="rounded=0;whiteSpace=wrap;html=1;" vertex="1" parent="1">
          <mxGeometry x="650" y="340" width="120" height="60" as="geometry" />
        </mxCell>
        <mxCell id="TKwoXikz-x9QbJygY-A--7" value="" style="endArrow=classic;html=1;rounded=0;entryX=0.5;entryY=0;entryDx=0;entryDy=0;" edge="1" parent="1" source="TKwoXikz-x9QbJygY-A--1" target="TKwoXikz-x9QbJygY-A--2">
          <mxGeometry width="50" height="50" relative="1" as="geometry">
            <mxPoint x="260" y="270" as="sourcePoint" />
            <mxPoint x="310" y="220" as="targetPoint" />
          </mxGeometry>
        </mxCell>
        <mxCell id="TKwoXikz-x9QbJygY-A--8" value="" style="endArrow=classic;html=1;rounded=0;entryX=0.5;entryY=0;entryDx=0;entryDy=0;" edge="1" parent="1" source="TKwoXikz-x9QbJygY-A--2" target="TKwoXikz-x9QbJygY-A--3">
          <mxGeometry width="50" height="50" relative="1" as="geometry">
            <mxPoint x="414" y="244" as="sourcePoint" />
            <mxPoint x="414" y="324" as="targetPoint" />
          </mxGeometry>
        </mxCell>
        <mxCell id="TKwoXikz-x9QbJygY-A--9" value="No" style="endArrow=classic;html=1;rounded=0;entryX=0;entryY=0.5;entryDx=0;entryDy=0;exitX=1;exitY=0.5;exitDx=0;exitDy=0;" edge="1" parent="1" source="TKwoXikz-x9QbJygY-A--3" target="TKwoXikz-x9QbJygY-A--6">
          <mxGeometry width="50" height="50" relative="1" as="geometry">
            <mxPoint x="424" y="250" as="sourcePoint" />
            <mxPoint x="424" y="340" as="targetPoint" />
          </mxGeometry>
        </mxCell>
        <mxCell id="TKwoXikz-x9QbJygY-A--10" value="Si" style="endArrow=classic;html=1;rounded=0;entryX=1;entryY=0.5;entryDx=0;entryDy=0;exitX=0;exitY=0.5;exitDx=0;exitDy=0;" edge="1" parent="1" source="TKwoXikz-x9QbJygY-A--3" target="TKwoXikz-x9QbJygY-A--4">
          <mxGeometry width="50" height="50" relative="1" as="geometry">
            <mxPoint x="424" y="250" as="sourcePoint" />
            <mxPoint x="424" y="340" as="targetPoint" />
          </mxGeometry>
        </mxCell>
        <mxCell id="TKwoXikz-x9QbJygY-A--11" value="" style="endArrow=classic;html=1;rounded=0;entryX=0;entryY=0.5;entryDx=0;entryDy=0;" edge="1" parent="1" target="TKwoXikz-x9QbJygY-A--12">
          <mxGeometry width="50" height="50" relative="1" as="geometry">
            <mxPoint x="150" y="400" as="sourcePoint" />
            <mxPoint x="150" y="490" as="targetPoint" />
            <Array as="points">
              <mxPoint x="150" y="520" />
            </Array>
          </mxGeometry>
        </mxCell>
        <mxCell id="TKwoXikz-x9QbJygY-A--12" value="Fin" style="ellipse;whiteSpace=wrap;html=1;aspect=fixed;" vertex="1" parent="1">
          <mxGeometry x="379" y="470" width="90" height="90" as="geometry" />
        </mxCell>
        <mxCell id="TKwoXikz-x9QbJygY-A--13" value="" style="endArrow=classic;html=1;rounded=0;entryX=1;entryY=0.5;entryDx=0;entryDy=0;" edge="1" parent="1" source="TKwoXikz-x9QbJygY-A--6" target="TKwoXikz-x9QbJygY-A--12">
          <mxGeometry width="50" height="50" relative="1" as="geometry">
            <mxPoint x="709.5" y="400" as="sourcePoint" />
            <mxPoint x="709.5" y="490" as="targetPoint" />
            <Array as="points">
              <mxPoint x="710" y="520" />
            </Array>
          </mxGeometry>
        </mxCell>
      </root>
    </mxGraphModel>
  </diagram>
  <diagram id="uSKvAHlkOryF9daMjnZe" name="Login - parte 2">
    <mxGraphModel dx="1120" dy="486" grid="1" gridSize="10" guides="1" tooltips="1" connect="1" arrows="1" fold="1" page="1" pageScale="1" pageWidth="827" pageHeight="1169" math="0" shadow="0">
      <root>
        <mxCell id="0" />
        <mxCell id="1" parent="0" />
        <mxCell id="JRX504n-7jybETpcOFiQ-3" value="" style="edgeStyle=orthogonalEdgeStyle;rounded=0;orthogonalLoop=1;jettySize=auto;html=1;" edge="1" parent="1" source="JRX504n-7jybETpcOFiQ-1" target="JRX504n-7jybETpcOFiQ-2">
          <mxGeometry relative="1" as="geometry" />
        </mxCell>
        <mxCell id="JRX504n-7jybETpcOFiQ-1" value="Inicio" style="ellipse;whiteSpace=wrap;html=1;aspect=fixed;" vertex="1" parent="1">
          <mxGeometry x="374" y="70" width="80" height="80" as="geometry" />
        </mxCell>
        <mxCell id="JRX504n-7jybETpcOFiQ-5" value="" style="edgeStyle=orthogonalEdgeStyle;rounded=0;orthogonalLoop=1;jettySize=auto;html=1;" edge="1" parent="1" source="JRX504n-7jybETpcOFiQ-2" target="JRX504n-7jybETpcOFiQ-4">
          <mxGeometry relative="1" as="geometry" />
        </mxCell>
        <mxCell id="JRX504n-7jybETpcOFiQ-2" value="Ingreso de Código 2fa" style="whiteSpace=wrap;html=1;" vertex="1" parent="1">
          <mxGeometry x="354" y="220" width="120" height="60" as="geometry" />
        </mxCell>
        <mxCell id="JRX504n-7jybETpcOFiQ-7" value="No" style="edgeStyle=orthogonalEdgeStyle;rounded=0;orthogonalLoop=1;jettySize=auto;html=1;" edge="1" parent="1" source="JRX504n-7jybETpcOFiQ-4" target="JRX504n-7jybETpcOFiQ-6">
          <mxGeometry relative="1" as="geometry" />
        </mxCell>
        <mxCell id="JRX504n-7jybETpcOFiQ-9" value="Si" style="edgeStyle=orthogonalEdgeStyle;rounded=0;orthogonalLoop=1;jettySize=auto;html=1;" edge="1" parent="1" source="JRX504n-7jybETpcOFiQ-4" target="JRX504n-7jybETpcOFiQ-8">
          <mxGeometry relative="1" as="geometry" />
        </mxCell>
        <mxCell id="JRX504n-7jybETpcOFiQ-4" value="¿Código correcto?" style="rhombus;whiteSpace=wrap;html=1;" vertex="1" parent="1">
          <mxGeometry x="349" y="330" width="130" height="80" as="geometry" />
        </mxCell>
        <mxCell id="JRX504n-7jybETpcOFiQ-6" value="Retornar mensaje de error" style="whiteSpace=wrap;html=1;" vertex="1" parent="1">
          <mxGeometry x="610" y="340" width="150" height="60" as="geometry" />
        </mxCell>
        <mxCell id="JRX504n-7jybETpcOFiQ-8" value="Generar token" style="whiteSpace=wrap;html=1;" vertex="1" parent="1">
          <mxGeometry x="80" y="340" width="140" height="60" as="geometry" />
        </mxCell>
        <mxCell id="JRX504n-7jybETpcOFiQ-12" value="Fin" style="ellipse;whiteSpace=wrap;html=1;aspect=fixed;" vertex="1" parent="1">
          <mxGeometry x="374" y="480" width="80" height="80" as="geometry" />
        </mxCell>
        <mxCell id="JRX504n-7jybETpcOFiQ-13" value="" style="endArrow=classic;html=1;rounded=0;entryX=0;entryY=0.5;entryDx=0;entryDy=0;exitX=0.5;exitY=1;exitDx=0;exitDy=0;" edge="1" parent="1" source="JRX504n-7jybETpcOFiQ-8" target="JRX504n-7jybETpcOFiQ-12">
          <mxGeometry width="50" height="50" relative="1" as="geometry">
            <mxPoint x="260" y="620" as="sourcePoint" />
            <mxPoint x="310" y="570" as="targetPoint" />
            <Array as="points">
              <mxPoint x="150" y="520" />
            </Array>
          </mxGeometry>
        </mxCell>
        <mxCell id="JRX504n-7jybETpcOFiQ-14" value="" style="endArrow=classic;html=1;rounded=0;entryX=1;entryY=0.5;entryDx=0;entryDy=0;exitX=0.5;exitY=1;exitDx=0;exitDy=0;" edge="1" parent="1" source="JRX504n-7jybETpcOFiQ-6" target="JRX504n-7jybETpcOFiQ-12">
          <mxGeometry width="50" height="50" relative="1" as="geometry">
            <mxPoint x="390" y="470" as="sourcePoint" />
            <mxPoint x="440" y="420" as="targetPoint" />
            <Array as="points">
              <mxPoint x="685" y="520" />
            </Array>
          </mxGeometry>
        </mxCell>
      </root>
    </mxGraphModel>
  </diagram>
</mxfile>
